<svg width="100" height="100" viewBox="0 0 100 100" fill="none" xmlns="http://www.w3.org/2000/svg">
<path fill-rule="evenodd" clip-rule="evenodd" d="M29.0287 11.5C28.9709 12.3746 28.9926 13.1954 29.086 13.9637L29.0634 13.9751C30.2812 22.1123 37.5472 25.0094 40 25.5C32.1164 26.4855 27.1461 19.0545 26.0462 15.6482C12.8245 23.6407 4 38.051 4 54.5C4 79.629 24.5949 100 50 100C55.5565 100 60.8828 99.0255 65.8139 97.24C68.7466 96.0428 72.6233 94.0845 76.5 91.5C79.5 90 96 76.5 96 54.5C96 52.8024 95.906 51.1264 95.7229 49.477C94.4304 40.755 89.4202 32.9202 89 32.5C88.5 31.5 86.5 31.25 86 31.5C85 32 84.1558 33.2733 84.5 34C86 37.1667 89 45.8 89 55C89.5 61 84 90.5 54 92C56 89.6667 60 82.8 60 74C60 68.5 59 62.5 58 59.5C59 59.5 64 58.5 64 53C64 52 63 46 58 46C58 43.5 62.5 34.5 67 33.5C68.0914 33.2575 74 30.5 74 26.5C74 25 67 14 54.5 12.5C54.5 11.5 54.5 10 54 9H54.0479C52.5168 4.57429 47.299 0 41.5144 0C34.6187 0 29.0287 5.14873 29.0287 11.5ZM58.5 26C60.433 26 62 24.433 62 22.5C62 20.567 60.433 19 58.5 19C56.567 19 55 20.567 55 22.5C55 24.433 56.567 26 58.5 26Z" fill="black"/>
</svg>
